<svg xmlns="http://www.w3.org/2000/svg" xmlns:xlink="http://www.w3.org/1999/xlink" width="50" height="50" viewBox="0 0 50 50">
  <defs>
    <radialGradient id="radial-gradient" cx="0.065" cy="0.978" r="1.27" gradientUnits="objectBoundingBox">
      <stop offset="0.09" stop-color="#fa8f21"/>
      <stop offset="0.78" stop-color="#d82d7e"/>
    </radialGradient>
    <radialGradient id="radial-gradient-2" cx="0.693" cy="0.946" r="1.117" gradientUnits="objectBoundingBox">
      <stop offset="0.64" stop-color="#8c3aaa" stop-opacity="0"/>
      <stop offset="1" stop-color="#8c3aaa"/>
    </radialGradient>
  </defs>
  <g id="Group_88" data-name="Group 88" transform="translate(-833 -13704)">
    <rect id="Rectangle_50" data-name="Rectangle 50" width="50" height="50" transform="translate(833 13704)" fill="none"/>
    <g id="instagram" transform="translate(838 13709)">
      <path id="Path_16" data-name="Path 16" d="M10.143,39.858a13.467,13.467,0,0,1-4.531-.839,7.58,7.58,0,0,1-2.805-1.825A7.522,7.522,0,0,1,.98,34.389a13.467,13.467,0,0,1-.838-4.53C.024,27.288,0,26.516,0,20s.026-7.285.142-9.859A13.543,13.543,0,0,1,.98,5.612,7.608,7.608,0,0,1,2.805,2.805,7.532,7.532,0,0,1,5.611.98,13.467,13.467,0,0,1,10.142.142C12.714.024,13.487,0,20,0s7.285.026,9.859.142a13.543,13.543,0,0,1,4.53.839,7.55,7.55,0,0,1,2.805,1.825,7.556,7.556,0,0,1,1.825,2.806,13.467,13.467,0,0,1,.839,4.531C39.976,12.716,40,13.486,40,20s-.024,7.285-.142,9.859a13.529,13.529,0,0,1-.839,4.53,8.078,8.078,0,0,1-4.631,4.63,13.467,13.467,0,0,1-4.531.839C27.286,39.976,26.513,40,20,40s-7.285-.023-9.856-.142" fill="url(#radial-gradient)"/>
      <path id="Path_17" data-name="Path 17" d="M10.143,39.858a13.467,13.467,0,0,1-4.531-.839,7.58,7.58,0,0,1-2.805-1.825A7.522,7.522,0,0,1,.98,34.389a13.467,13.467,0,0,1-.838-4.53C.024,27.288,0,26.516,0,20s.026-7.285.142-9.859A13.543,13.543,0,0,1,.98,5.612,7.608,7.608,0,0,1,2.805,2.805,7.532,7.532,0,0,1,5.611.98,13.467,13.467,0,0,1,10.142.142C12.714.024,13.487,0,20,0s7.285.026,9.859.142a13.543,13.543,0,0,1,4.53.839,7.55,7.55,0,0,1,2.805,1.825,7.556,7.556,0,0,1,1.825,2.806,13.467,13.467,0,0,1,.839,4.531C39.976,12.716,40,13.486,40,20s-.024,7.285-.142,9.859a13.529,13.529,0,0,1-.839,4.53,8.078,8.078,0,0,1-4.631,4.63,13.467,13.467,0,0,1-4.531.839C27.286,39.976,26.513,40,20,40s-7.285-.023-9.856-.142" fill="url(#radial-gradient-2)"/>
      <path id="Path_18" data-name="Path 18" d="M445.859,454.533a5,5,0,1,1,5,5,5,5,0,0,1-5-5m-2.705,0a7.708,7.708,0,1,0,7.708-7.709,7.709,7.709,0,0,0-7.708,7.709m13.921-8.014a1.8,1.8,0,1,0,1.8-1.8h0a1.8,1.8,0,0,0-1.8,1.8M444.8,466.753a8.3,8.3,0,0,1-2.788-.515,4.97,4.97,0,0,1-2.85-2.849,8.288,8.288,0,0,1-.515-2.788c-.073-1.582-.087-2.058-.087-6.067s.016-4.483.087-6.067a8.353,8.353,0,0,1,.515-2.788,4.968,4.968,0,0,1,2.85-2.85,8.289,8.289,0,0,1,2.788-.515c1.582-.073,2.058-.087,6.065-.087s4.483.015,6.067.088a8.351,8.351,0,0,1,2.788.515,4.968,4.968,0,0,1,2.85,2.85,8.291,8.291,0,0,1,.515,2.788c.073,1.585.087,2.058.087,6.067s-.015,4.483-.087,6.067a8.327,8.327,0,0,1-.515,2.788,4.971,4.971,0,0,1-2.85,2.849,8.289,8.289,0,0,1-2.788.515c-1.582.073-2.058.087-6.067.087s-4.483-.015-6.065-.087m-.124-27.141a11.008,11.008,0,0,0-3.645.7,7.675,7.675,0,0,0-4.391,4.391,11.013,11.013,0,0,0-.7,3.645c-.074,1.6-.091,2.112-.091,6.189s.017,4.588.091,6.189a11.012,11.012,0,0,0,.7,3.645,7.675,7.675,0,0,0,4.391,4.391,11.018,11.018,0,0,0,3.645.7c1.6.073,2.112.091,6.189.091s4.588-.017,6.189-.091a11.015,11.015,0,0,0,3.645-.7,7.676,7.676,0,0,0,4.391-4.391,10.982,10.982,0,0,0,.7-3.645c.073-1.6.09-2.112.09-6.189s-.017-4.588-.09-6.189a11.007,11.007,0,0,0-.7-3.645,7.677,7.677,0,0,0-4.389-4.391,10.992,10.992,0,0,0-3.645-.7c-1.6-.073-2.112-.091-6.188-.091s-4.589.017-6.19.091" transform="translate(-430.808 -434.422)" fill="#fff"/>
    </g>
  </g>
</svg>
